<svg width="122" height="62" viewBox="0 0 122 62" fill="none" xmlns="http://www.w3.org/2000/svg">
<path d="M3.68745 48.718C3.68745 47.494 3.96945 46.396 4.53345 45.424C5.10945 44.452 5.88345 43.696 6.85545 43.156C7.83945 42.604 8.91345 42.328 10.0774 42.328C11.4094 42.328 12.5914 42.658 13.6234 43.318C14.6674 43.966 15.4234 44.89 15.8914 46.09H13.4254C13.1014 45.43 12.6514 44.938 12.0754 44.614C11.4994 44.29 10.8334 44.128 10.0774 44.128C9.24945 44.128 8.51145 44.314 7.86345 44.686C7.21545 45.058 6.70545 45.592 6.33345 46.288C5.97345 46.984 5.79345 47.794 5.79345 48.718C5.79345 49.642 5.97345 50.452 6.33345 51.148C6.70545 51.844 7.21545 52.384 7.86345 52.768C8.51145 53.14 9.24945 53.326 10.0774 53.326C10.8334 53.326 11.4994 53.164 12.0754 52.84C12.6514 52.516 13.1014 52.024 13.4254 51.364H15.8914C15.4234 52.564 14.6674 53.488 13.6234 54.136C12.5914 54.784 11.4094 55.108 10.0774 55.108C8.90145 55.108 7.82745 54.838 6.85545 54.298C5.88345 53.746 5.10945 52.984 4.53345 52.012C3.96945 51.04 3.68745 49.942 3.68745 48.718ZM28.3193 55.126C27.1553 55.126 26.0813 54.856 25.0973 54.316C24.1253 53.764 23.3513 53.002 22.7753 52.03C22.2113 51.046 21.9293 49.942 21.9293 48.718C21.9293 47.494 22.2113 46.396 22.7753 45.424C23.3513 44.452 24.1253 43.696 25.0973 43.156C26.0813 42.604 27.1553 42.328 28.3193 42.328C29.4953 42.328 30.5693 42.604 31.5413 43.156C32.5253 43.696 33.2993 44.452 33.8633 45.424C34.4273 46.396 34.7093 47.494 34.7093 48.718C34.7093 49.942 34.4273 51.046 33.8633 52.03C33.2993 53.002 32.5253 53.764 31.5413 54.316C30.5693 54.856 29.4953 55.126 28.3193 55.126ZM28.3193 53.344C29.1473 53.344 29.8853 53.158 30.5333 52.786C31.1813 52.402 31.6853 51.862 32.0453 51.166C32.4173 50.458 32.6033 49.642 32.6033 48.718C32.6033 47.794 32.4173 46.984 32.0453 46.288C31.6853 45.592 31.1813 45.058 30.5333 44.686C29.8853 44.314 29.1473 44.128 28.3193 44.128C27.4913 44.128 26.7533 44.314 26.1053 44.686C25.4573 45.058 24.9473 45.592 24.5753 46.288C24.2153 46.984 24.0353 47.794 24.0353 48.718C24.0353 49.642 24.2153 50.458 24.5753 51.166C24.9473 51.862 25.4573 52.402 26.1053 52.786C26.7533 53.158 27.4913 53.344 28.3193 53.344ZM54.2246 42.49V55H52.1726V46.432L48.3566 55H46.9346L43.1006 46.432V55H41.0486V42.49H43.2626L47.6546 52.3L52.0286 42.49H54.2246ZM69.9896 46.216C69.9896 46.852 69.8396 47.452 69.5396 48.016C69.2396 48.58 68.7596 49.042 68.0996 49.402C67.4396 49.75 66.5936 49.924 65.5616 49.924H63.2936V55H61.2416V42.49H65.5616C66.5216 42.49 67.3316 42.658 67.9916 42.994C68.6636 43.318 69.1616 43.762 69.4856 44.326C69.8216 44.89 69.9896 45.52 69.9896 46.216ZM65.5616 48.25C66.3416 48.25 66.9236 48.076 67.3076 47.728C67.6916 47.368 67.8836 46.864 67.8836 46.216C67.8836 44.848 67.1096 44.164 65.5616 44.164H63.2936V48.25H65.5616ZM83.8087 52.444H78.5707L77.6707 55H75.5287L80.0107 42.472H82.3867L86.8687 55H84.7087L83.8087 52.444ZM83.2327 50.77L81.1987 44.956L79.1467 50.77H83.2327ZM103.415 55H101.363L95.1895 45.658V55H93.1375V42.472H95.1895L101.363 51.796V42.472H103.415V55ZM119.7 42.49L115.56 50.464V55H113.508V50.464L109.35 42.49H111.636L114.534 48.628L117.432 42.49H119.7Z" fill="#E3F2FD"/>
<path d="M16.8584 27.9307C16.8584 27.4482 16.7842 27.0153 16.6357 26.6318C16.4997 26.236 16.2399 25.8773 15.8564 25.5557C15.473 25.2217 14.9349 24.8939 14.2422 24.5723C13.5495 24.2507 12.6527 23.9167 11.5518 23.5703C10.3271 23.1745 9.16439 22.7292 8.06348 22.2344C6.97493 21.7396 6.01009 21.1644 5.16895 20.5088C4.34017 19.8408 3.68457 19.0677 3.20215 18.1895C2.7321 17.3112 2.49707 16.2907 2.49707 15.1279C2.49707 14.0023 2.74447 12.9818 3.23926 12.0664C3.73405 11.1387 4.42676 10.347 5.31738 9.69141C6.20801 9.02344 7.25944 8.51009 8.47168 8.15137C9.69629 7.79264 11.0384 7.61328 12.498 7.61328C14.4896 7.61328 16.2275 7.97201 17.7119 8.68945C19.1963 9.4069 20.3467 10.3903 21.1631 11.6396C21.9919 12.889 22.4062 14.3177 22.4062 15.9258H16.877C16.877 15.1341 16.71 14.4414 16.376 13.8477C16.0544 13.2415 15.5596 12.7653 14.8916 12.4189C14.236 12.0726 13.4072 11.8994 12.4053 11.8994C11.4404 11.8994 10.6364 12.0479 9.99316 12.3447C9.34993 12.6292 8.86751 13.0189 8.5459 13.5137C8.22428 13.9961 8.06348 14.5404 8.06348 15.1465C8.06348 15.6042 8.1748 16.0186 8.39746 16.3896C8.63249 16.7607 8.97884 17.1071 9.43652 17.4287C9.89421 17.7503 10.457 18.0534 11.125 18.3379C11.793 18.6224 12.5661 18.9007 13.4443 19.1729C14.9163 19.6182 16.209 20.1191 17.3223 20.6758C18.4479 21.2324 19.388 21.8571 20.1426 22.5498C20.8971 23.2425 21.4661 24.028 21.8496 24.9062C22.2331 25.7845 22.4248 26.7803 22.4248 27.8936C22.4248 29.0687 22.196 30.1201 21.7383 31.0479C21.2806 31.9756 20.6188 32.7611 19.7529 33.4043C18.887 34.0475 17.8542 34.5361 16.6543 34.8701C15.4544 35.2041 14.1123 35.3711 12.6279 35.3711C11.292 35.3711 9.97461 35.1979 8.67578 34.8516C7.37695 34.4928 6.19564 33.9548 5.13184 33.2373C4.0804 32.5199 3.23926 31.6045 2.6084 30.4912C1.97754 29.3779 1.66211 28.0605 1.66211 26.5391H7.24707C7.24707 27.3802 7.37695 28.0915 7.63672 28.6729C7.89648 29.2542 8.26139 29.7243 8.73145 30.083C9.21387 30.4417 9.78288 30.7015 10.4385 30.8623C11.1064 31.0231 11.8363 31.1035 12.6279 31.1035C13.5928 31.1035 14.3844 30.9674 15.0029 30.6953C15.6338 30.4232 16.0977 30.0459 16.3945 29.5635C16.7038 29.0811 16.8584 28.5368 16.8584 27.9307ZM44.2266 18.9873V23.3291H30.125V18.9873H44.2266ZM31.7764 7.98438V35H26.21V7.98438H31.7764ZM48.1973 7.98438V35H42.6494V7.98438H48.1973ZM75.2314 20.8613V22.1416C75.2314 24.195 74.9531 26.0381 74.3965 27.6709C73.8398 29.3037 73.0544 30.6953 72.04 31.8457C71.0257 32.9837 69.8135 33.8558 68.4033 34.4619C67.0055 35.068 65.4531 35.3711 63.7461 35.3711C62.0514 35.3711 60.499 35.068 59.0889 34.4619C57.6911 33.8558 56.4788 32.9837 55.4521 31.8457C54.4255 30.6953 53.6276 29.3037 53.0586 27.6709C52.502 26.0381 52.2236 24.195 52.2236 22.1416V20.8613C52.2236 18.7956 52.502 16.9525 53.0586 15.332C53.6152 13.6992 54.4007 12.3076 55.415 11.1572C56.4417 10.0068 57.654 9.12858 59.0518 8.52246C60.4619 7.91634 62.0143 7.61328 63.709 7.61328C65.416 7.61328 66.9684 7.91634 68.3662 8.52246C69.7764 9.12858 70.9886 10.0068 72.0029 11.1572C73.0296 12.3076 73.8213 13.6992 74.3779 15.332C74.9469 16.9525 75.2314 18.7956 75.2314 20.8613ZM69.6094 22.1416V20.8242C69.6094 19.3893 69.4795 18.1276 69.2197 17.0391C68.96 15.9505 68.5765 15.0352 68.0693 14.293C67.5622 13.5508 66.9437 12.9941 66.2139 12.623C65.484 12.2396 64.6491 12.0479 63.709 12.0479C62.7689 12.0479 61.9339 12.2396 61.2041 12.623C60.4867 12.9941 59.8743 13.5508 59.3672 14.293C58.8724 15.0352 58.4951 15.9505 58.2354 17.0391C57.9756 18.1276 57.8457 19.3893 57.8457 20.8242V22.1416C57.8457 23.5641 57.9756 24.8258 58.2354 25.9268C58.4951 27.0153 58.8786 27.9368 59.3857 28.6914C59.8929 29.4336 60.5114 29.9964 61.2412 30.3799C61.971 30.7633 62.806 30.9551 63.7461 30.9551C64.6862 30.9551 65.5212 30.7633 66.251 30.3799C66.9808 29.9964 67.5931 29.4336 68.0879 28.6914C68.5827 27.9368 68.96 27.0153 69.2197 25.9268C69.4795 24.8258 69.6094 23.5641 69.6094 22.1416ZM97.3672 30.6582V35H82.9873V30.6582H97.3672ZM84.8057 7.98438V35H79.2393V7.98438H84.8057ZM95.4932 18.9873V23.2178H82.9873V18.9873H95.4932ZM97.3486 7.98438V12.3447H82.9873V7.98438H97.3486ZM114.679 27.9307C114.679 27.4482 114.604 27.0153 114.456 26.6318C114.32 26.236 114.06 25.8773 113.677 25.5557C113.293 25.2217 112.755 24.8939 112.062 24.5723C111.37 24.2507 110.473 23.9167 109.372 23.5703C108.147 23.1745 106.985 22.7292 105.884 22.2344C104.795 21.7396 103.83 21.1644 102.989 20.5088C102.16 19.8408 101.505 19.0677 101.022 18.1895C100.552 17.3112 100.317 16.2907 100.317 15.1279C100.317 14.0023 100.565 12.9818 101.06 12.0664C101.554 11.1387 102.247 10.347 103.138 9.69141C104.028 9.02344 105.08 8.51009 106.292 8.15137C107.517 7.79264 108.859 7.61328 110.318 7.61328C112.31 7.61328 114.048 7.97201 115.532 8.68945C117.017 9.4069 118.167 10.3903 118.983 11.6396C119.812 12.889 120.227 14.3177 120.227 15.9258H114.697C114.697 15.1341 114.53 14.4414 114.196 13.8477C113.875 13.2415 113.38 12.7653 112.712 12.4189C112.056 12.0726 111.228 11.8994 110.226 11.8994C109.261 11.8994 108.457 12.0479 107.813 12.3447C107.17 12.6292 106.688 13.0189 106.366 13.5137C106.045 13.9961 105.884 14.5404 105.884 15.1465C105.884 15.6042 105.995 16.0186 106.218 16.3896C106.453 16.7607 106.799 17.1071 107.257 17.4287C107.715 17.7503 108.277 18.0534 108.945 18.3379C109.613 18.6224 110.386 18.9007 111.265 19.1729C112.737 19.6182 114.029 20.1191 115.143 20.6758C116.268 21.2324 117.208 21.8571 117.963 22.5498C118.717 23.2425 119.286 24.028 119.67 24.9062C120.053 25.7845 120.245 26.7803 120.245 27.8936C120.245 29.0687 120.016 30.1201 119.559 31.0479C119.101 31.9756 118.439 32.7611 117.573 33.4043C116.707 34.0475 115.674 34.5361 114.475 34.8701C113.275 35.2041 111.933 35.3711 110.448 35.3711C109.112 35.3711 107.795 35.1979 106.496 34.8516C105.197 34.4928 104.016 33.9548 102.952 33.2373C101.901 32.5199 101.06 31.6045 100.429 30.4912C99.7979 29.3779 99.4824 28.0605 99.4824 26.5391H105.067C105.067 27.3802 105.197 28.0915 105.457 28.6729C105.717 29.2542 106.082 29.7243 106.552 30.083C107.034 30.4417 107.603 30.7015 108.259 30.8623C108.927 31.0231 109.657 31.1035 110.448 31.1035C111.413 31.1035 112.205 30.9674 112.823 30.6953C113.454 30.4232 113.918 30.0459 114.215 29.5635C114.524 29.0811 114.679 28.5368 114.679 27.9307Z" fill="#E3F2FD"/>
</svg>
