<svg width="24" height="23" viewBox="0 0 24 23" fill="none" xmlns="http://www.w3.org/2000/svg">
<path d="M17.023 16.2546C16.5546 15.825 16.0988 15.3832 15.656 14.9295C15.284 14.5676 15.06 14.3043 15.06 14.3043L12.26 13.0241C13.381 11.8069 13.9997 10.2399 14 8.61702C14 4.92223 10.86 1.91489 7 1.91489C3.14 1.91489 0 4.92223 0 8.61702C0 12.3118 3.14 15.3191 7 15.3191C8.763 15.3191 10.37 14.6872 11.603 13.6541L12.94 16.335C12.94 16.335 13.215 16.5495 13.593 16.9056C13.98 17.2532 14.489 17.7233 14.977 18.2145L16.335 19.5472L16.939 20.1657L19.06 18.135L18.414 17.5567C18.035 17.2005 17.529 16.7276 17.023 16.2546ZM7 13.4043C4.243 13.4043 2 11.2567 2 8.61702C2 5.97734 4.243 3.82979 7 3.82979C9.757 3.82979 12 5.97734 12 8.61702C12 11.2567 9.757 13.4043 7 13.4043Z" fill="#E3F2FD"/>
</svg>
